<svg width="24" height="24" viewBox="0 0 24 24" fill="none" xmlns="http://www.w3.org/2000/svg">
<g clip-path="url(#clip0_2_857)">
<path d="M5.69644 6.4964H12.5946C13.0492 6.4964 13.0492 5.79327 12.5946 5.79327H5.69644C5.24189 5.79327 5.24189 6.4964 5.69644 6.4964Z" fill="#181616"/>
<path d="M5.69644 9.07568H11.0009C11.4554 9.07568 11.4554 8.37256 11.0009 8.37256H5.69644C5.24189 8.37256 5.24189 9.07568 5.69644 9.07568Z" fill="#181616"/>
<path d="M5.69644 11.655H10.2509C10.7054 11.655 10.7054 10.9519 10.2509 10.9519H5.69644C5.24189 10.9519 5.24189 11.655 5.69644 11.655Z" fill="#181616"/>
<path d="M12.1738 20.2679H11.9409V16.8321C11.9409 16.6379 11.7835 16.4805 11.5893 16.4805H10.1785V15.2412C10.1785 15.0471 10.0211 14.8896 9.82694 14.8896H8.0688C7.87459 14.8896 7.71723 15.0471 7.71723 15.2412V17.3804H6.30915C6.11495 17.3804 5.95759 17.5379 5.95759 17.732V20.2679H5.72467C5.53047 20.2679 5.37311 20.4254 5.37311 20.6195C5.37311 20.8137 5.53047 20.9711 5.72467 20.9711H12.1738C12.368 20.9711 12.5253 20.8137 12.5253 20.6195C12.5253 20.4254 12.368 20.2679 12.1738 20.2679ZM6.66076 20.2679V18.0836H7.71583V20.2679H6.66076ZM8.4204 20.2679V15.5928H9.47542V20.2679H8.4204ZM10.1827 20.2679V17.1836H11.2378V20.2679H10.1827Z" fill="#181616"/>
<path d="M23.9974 10.9501C23.9516 9.4702 23.3488 8.07755 22.3 7.02872C21.7967 6.52547 21.2232 6.13448 20.6107 5.8552C20.6005 5.8493 20.5898 5.84381 20.5788 5.83884C20.5676 5.83378 20.5562 5.82937 20.5447 5.82562C19.7527 5.47636 18.898 5.31248 18.0472 5.33442V3.39745C18.0472 2.94717 17.681 2.58084 17.2307 2.58084H16.7237V2.14191C16.7237 1.69162 16.3574 1.3253 15.9072 1.3253H15.3988V0.816609C15.3988 0.366328 15.0325 0 14.5823 0H0.816835C0.366601 0 0.000366211 0.366328 0.000366211 0.816609V20.6026C0.000366211 21.0529 0.366601 21.4192 0.816835 21.4192H1.32529V21.9279C1.32529 22.3782 1.69152 22.7445 2.1403 22.7445L2.64885 22.7466V23.1834C2.64885 23.6337 3.01508 24 3.46532 24H14.4471C14.5391 24 14.63 23.9625 14.6952 23.8977L17.9437 20.6645C18.01 20.5985 18.0473 20.5088 18.0473 20.4153V16.9299C18.0947 16.9311 18.1421 16.9322 18.1895 16.9322C19.1804 16.9322 20.1671 16.679 21.0301 16.1954C21.4267 15.9732 21.083 15.36 20.6864 15.582C18.8094 16.6338 16.4603 16.3747 14.8513 14.9747L18.3036 11.5223L23.0235 12.7731C22.8155 13.3881 22.4867 13.9718 22.0353 14.4866C21.7357 14.8284 22.2643 15.2919 22.564 14.9502C23.5339 13.8439 24.0429 12.4233 23.9974 10.9501ZM19.9638 6.34898L17.9038 10.9276L14.3534 14.4781C12.6094 12.4778 12.6891 9.42998 14.5933 7.52588C16.0428 6.07631 18.1553 5.6842 19.9638 6.34898ZM2.14166 22.0413C2.07918 22.0413 2.02837 21.9904 2.02837 21.9278V2.14191C2.02837 2.07933 2.07918 2.02842 2.14166 2.02842H4.59407C5.04862 2.02842 5.04862 1.3253 4.59407 1.3253H2.14166C1.69148 1.3253 1.32524 1.69162 1.32524 2.14191V20.716H0.816835C0.75435 20.716 0.703491 20.6651 0.703491 20.6025V0.816609C0.703491 0.754031 0.75435 0.703125 0.816835 0.703125H14.5823C14.6448 0.703125 14.6957 0.754031 14.6957 0.816609V1.32534H6.56287C6.10832 1.32534 6.10832 2.02847 6.56287 2.02847H15.9073C15.9697 2.02847 16.0206 2.07938 16.0206 2.14195V2.58089H3.46527C3.01508 2.58089 2.6488 2.94722 2.6488 3.3975V22.0434L2.14166 22.0413ZM3.35193 23.1834V3.39745C3.35193 3.33487 3.40279 3.28397 3.46527 3.28397H17.2308C17.2933 3.28397 17.3441 3.33487 17.3441 3.39745V5.39522C16.1547 5.57081 15.0096 6.11517 14.0961 7.02877C11.8342 9.29058 11.8342 12.9708 14.0961 15.2327C14.9857 16.1223 16.1072 16.686 17.3441 16.8689V20.0335H14.912C14.4618 20.0335 14.0955 20.3999 14.0955 20.8501V23.2969H3.46527C3.40279 23.2969 3.35193 23.246 3.35193 23.1834ZM14.7987 22.797V20.8501C14.7987 20.7876 14.8495 20.7367 14.912 20.7367H16.8496L14.7987 22.797ZM18.6886 10.897L20.6053 6.6368C21.0358 6.86709 21.4401 7.1633 21.8027 7.52592C23.0349 8.75817 23.508 10.4839 23.202 12.093L18.6886 10.897Z" fill="#181616"/>
</g>
<defs>
<clipPath id="clip0_2_857">
<rect width="24" height="24" fill="white"/>
</clipPath>
</defs>
</svg>
