<svg width="26" height="26" viewBox="0 0 26 26" fill="none" xmlns="http://www.w3.org/2000/svg">
<path d="M2.64062 5.04528V11.3588H12.9995V1H3.12352C2.85682 1 2.64062 1.21619 2.64062 1.4829V3.60243" stroke="#181616" stroke-miterlimit="10" stroke-linecap="round" stroke-linejoin="round"/>
<path d="M12.9995 11.3587H2.64062V21.7175H12.9995V11.3587Z" stroke="#181616" stroke-miterlimit="10" stroke-linecap="round" stroke-linejoin="round"/>
<path d="M23.3588 11.3588H13V1H22.8759C23.1426 1 23.3588 1.21619 23.3588 1.4829V11.3588Z" stroke="#181616" stroke-miterlimit="10" stroke-linecap="round" stroke-linejoin="round"/>
<path d="M23.3588 21.7175V11.3587H13V21.7175" stroke="#181616" stroke-miterlimit="10" stroke-linecap="round" stroke-linejoin="round"/>
<path d="M19.5506 21.7331H1.4829C1.21619 21.7331 1 21.9493 1 22.216V23.2138C1 23.4806 1.21619 23.6967 1.4829 23.6967H24.5171C24.7838 23.6967 25 23.4806 25 23.2138V22.216C25 21.9493 24.7838 21.7331 24.5171 21.7331H20.9764" stroke="#181616" stroke-miterlimit="10" stroke-linecap="round" stroke-linejoin="round"/>
<path d="M4.98391 25.0005H2.89403C2.62733 25.0005 2.41113 24.7843 2.41113 24.5176V23.6967H5.46686V24.5176C5.46681 24.7843 5.25062 25.0005 4.98391 25.0005Z" stroke="#181616" stroke-miterlimit="10" stroke-linecap="round" stroke-linejoin="round"/>
<path d="M23.108 25.0005H21.0181C20.7513 25.0005 20.5352 24.7843 20.5352 24.5176V23.6967H23.5909V24.5176C23.5909 24.7843 23.3747 25.0005 23.108 25.0005Z" stroke="#181616" stroke-miterlimit="10" stroke-linecap="round" stroke-linejoin="round"/>
<path d="M14.0455 25.0005H11.9556C11.6888 25.0005 11.4727 24.7843 11.4727 24.5176V23.6967H14.5284V24.5176C14.5284 24.7843 14.3122 25.0005 14.0455 25.0005Z" stroke="#181616" stroke-miterlimit="10" stroke-linecap="round" stroke-linejoin="round"/>
<path d="M8.83505 4.21127H6.80688C6.67355 4.21127 6.56543 4.10315 6.56543 3.96982V1H9.0765V3.96982C9.0765 4.10315 8.96838 4.21127 8.83505 4.21127Z" stroke="#181616" stroke-miterlimit="10" stroke-linecap="round" stroke-linejoin="round"/>
<path d="M19.1934 4.21127H17.1653C17.0319 4.21127 16.9238 4.10315 16.9238 3.96982V1H19.4349V3.96982C19.4349 4.10315 19.3268 4.21127 19.1934 4.21127Z" stroke="#181616" stroke-miterlimit="10" stroke-linecap="round" stroke-linejoin="round"/>
<path d="M8.83505 14.5775H6.80688C6.67355 14.5775 6.56543 14.4694 6.56543 14.336V11.3662H9.0765V14.336C9.0765 14.4694 8.96838 14.5775 8.83505 14.5775Z" stroke="#181616" stroke-miterlimit="10" stroke-linecap="round" stroke-linejoin="round"/>
<path d="M19.1934 14.5775H17.1653C17.0319 14.5775 16.9238 14.4694 16.9238 14.336V11.3662H19.4349V14.336C19.4349 14.4694 19.3268 14.5775 19.1934 14.5775Z" stroke="#181616" stroke-miterlimit="10" stroke-linecap="round" stroke-linejoin="round"/>
<path d="M10.9584 7.73761H8.54395" stroke="#181616" stroke-miterlimit="10" stroke-linecap="round" stroke-linejoin="round"/>
<path d="M10.9584 9.08984H8.54395" stroke="#181616" stroke-miterlimit="10" stroke-linecap="round" stroke-linejoin="round"/>
<path d="M21.3178 7.73761H18.9033" stroke="#181616" stroke-miterlimit="10" stroke-linecap="round" stroke-linejoin="round"/>
<path d="M21.3178 9.08984H18.9033" stroke="#181616" stroke-miterlimit="10" stroke-linecap="round" stroke-linejoin="round"/>
<path d="M10.9584 18.0218H8.54395" stroke="#181616" stroke-miterlimit="10" stroke-linecap="round" stroke-linejoin="round"/>
<path d="M10.9584 19.374H8.54395" stroke="#181616" stroke-miterlimit="10" stroke-linecap="round" stroke-linejoin="round"/>
<path d="M21.3178 18.0218H18.9033" stroke="#181616" stroke-miterlimit="10" stroke-linecap="round" stroke-linejoin="round"/>
<path d="M21.3178 19.374H18.9033" stroke="#181616" stroke-miterlimit="10" stroke-linecap="round" stroke-linejoin="round"/>
</svg>
